<?xml version="1.0" standalone="no"?>
<!DOCTYPE svg PUBLIC "-//W3C//DTD SVG 20010904//EN"
 "http://www.w3.org/TR/2001/REC-SVG-20010904/DTD/svg10.dtd">
<svg version="1.0" xmlns="http://www.w3.org/2000/svg"
 width="700.000000pt" height="700.000000pt" viewBox="0 0 700.000000 700.000000"
 preserveAspectRatio="xMidYMid meet">
<metadata>
Created by potrace 1.14, written by Peter Selinger 2001-2017
</metadata>
<g transform="translate(0.000000,700.000000) scale(0.100000,-0.100000)"
fill="#000000" stroke="none">
<path d="M4572 6973 c-19 -9 -40 -26 -47 -37 -15 -24 -40 -119 -49 -184 -3
-24 -12 -80 -20 -125 -8 -45 -17 -95 -20 -112 -11 -73 -57 -362 -61 -380 -3
-11 -7 -38 -10 -60 -3 -22 -12 -80 -21 -130 -19 -111 -19 -112 -44 -265 -11
-69 -22 -134 -24 -145 -2 -11 -9 -54 -15 -95 -17 -107 -15 -103 -59 -80 -54
28 -123 39 -232 36 -85 -2 -102 -6 -163 -36 -161 -80 -239 -198 -239 -365 0
-130 54 -238 164 -327 211 -172 539 -117 676 113 32 54 59 178 118 544 3 17
14 80 24 140 19 111 28 169 35 215 15 101 46 298 50 310 2 8 6 33 9 55 17 116
23 126 74 115 20 -5 60 -11 87 -14 28 -3 61 -8 75 -11 13 -2 42 -7 64 -11 22
-3 43 -7 46 -9 4 -2 29 -7 56 -10 27 -4 141 -22 254 -41 113 -20 219 -37 235
-40 17 -2 44 -6 60 -8 17 -3 71 -11 120 -20 50 -8 110 -18 135 -21 62 -9 80
-20 74 -48 -9 -46 -15 -83 -19 -109 -2 -15 -6 -35 -9 -45 -3 -10 -7 -36 -10
-58 -13 -103 -16 -121 -31 -195 -2 -14 -7 -45 -10 -70 -3 -25 -8 -52 -10 -60
-2 -8 -7 -33 -10 -55 -3 -23 -7 -50 -9 -60 -2 -11 -9 -55 -16 -97 -8 -47 -17
-78 -25 -78 -6 0 -38 9 -71 21 -43 15 -85 21 -154 21 -116 1 -138 -3 -218 -44
-86 -43 -156 -114 -195 -196 -28 -59 -32 -77 -32 -152 1 -56 7 -103 19 -139
64 -187 262 -314 464 -297 242 19 387 169 427 441 7 47 9 58 40 240 13 77 27
163 31 190 3 28 8 59 10 70 3 11 7 36 10 55 3 19 16 103 30 185 14 83 27 164
30 180 4 29 20 123 30 175 2 14 9 54 14 90 34 209 53 332 76 468 33 201 33
213 1 261 -34 51 -67 62 -292 98 -16 2 -68 11 -115 19 -47 8 -125 22 -175 30
-49 8 -103 17 -120 20 -16 3 -43 7 -60 10 -16 2 -55 9 -85 14 -30 5 -68 11
-85 14 -65 11 -221 37 -245 41 -14 3 -45 7 -70 11 -25 3 -61 9 -80 14 -19 5
-62 12 -95 15 -33 4 -80 11 -104 16 -87 19 -154 20 -189 2z m418 -326 c29 -4
138 -22 325 -53 17 -2 57 -9 90 -14 33 -6 85 -15 115 -20 30 -6 138 -24 240
-40 102 -16 200 -32 217 -35 31 -6 33 -8 28 -43 -20 -142 -29 -188 -37 -198
-5 -8 -23 -9 -52 -3 -24 4 -61 10 -82 13 -22 3 -52 7 -69 10 -16 3 -43 8 -60
10 -16 2 -61 9 -100 16 -38 6 -140 22 -225 36 -85 14 -168 27 -185 30 -56 9
-85 14 -112 19 -16 2 -71 11 -123 20 -201 33 -229 38 -239 45 -8 4 -8 23 -2
61 6 30 12 70 14 89 8 62 18 89 35 92 10 2 55 -4 102 -13 47 -10 101 -19 120
-22z"/>
<path d="M3280 4284 c-58 -13 -114 -26 -125 -29 -11 -2 -41 -9 -67 -14 -26 -6
-73 -17 -105 -25 -32 -8 -69 -17 -83 -20 -31 -5 -142 -31 -229 -52 -68 -17
-91 -22 -131 -30 -28 -6 -170 -39 -255 -59 -51 -12 -310 -72 -665 -155 -47
-11 -125 -29 -175 -41 -49 -11 -99 -22 -110 -25 -11 -2 -29 -6 -40 -8 -48 -10
-226 -57 -250 -66 -58 -22 -115 -113 -115 -182 0 -33 53 -288 105 -508 21 -90
35 -152 39 -171 5 -29 33 -150 81 -359 20 -85 38 -166 41 -179 3 -12 20 -90
39 -171 19 -81 36 -159 39 -171 6 -32 51 -227 71 -314 9 -38 19 -81 21 -95 3
-14 13 -59 24 -100 29 -117 52 -241 46 -247 -3 -3 -40 -7 -83 -9 -235 -10
-364 -62 -508 -208 -132 -133 -195 -284 -189 -456 5 -155 60 -284 168 -394 86
-88 138 -121 276 -177 26 -10 81 -14 205 -13 161 0 174 2 239 28 167 66 319
199 385 339 21 45 45 107 52 137 17 75 15 219 -5 315 -9 44 -18 89 -20 100 -7
33 -125 546 -161 700 -8 33 -30 131 -50 218 -19 86 -51 228 -71 315 -20 86
-38 168 -40 182 -3 14 -10 43 -16 65 -5 22 -11 47 -13 55 -2 8 -10 46 -19 83
-17 73 -12 101 21 111 10 3 167 39 348 81 182 42 357 82 390 91 33 8 69 16 80
18 35 8 275 64 390 91 61 15 117 28 125 30 8 2 67 15 130 29 63 15 129 29 145
32 17 2 53 11 80 18 81 23 132 29 140 16 5 -9 77 -303 91 -375 2 -11 22 -101
44 -200 23 -99 56 -247 75 -330 19 -82 45 -199 59 -258 14 -60 26 -110 26
-111 0 -1 -37 -2 -82 -2 -111 0 -180 -11 -258 -40 -222 -84 -383 -250 -439
-454 -28 -103 -16 -282 27 -387 41 -100 116 -196 195 -250 23 -15 44 -30 47
-33 15 -15 94 -51 155 -70 87 -26 245 -33 343 -15 259 50 481 252 536 490 31
135 24 237 -33 495 -18 81 -27 122 -56 250 -41 183 -78 348 -90 395 -8 33 -44
191 -80 350 -36 160 -79 346 -95 415 -16 69 -31 136 -34 150 -2 14 -11 54 -19
90 -29 119 -184 798 -192 839 -13 68 -60 201 -81 229 -54 70 -129 82 -294 46z
m-20 -470 c31 -80 81 -317 71 -333 -5 -8 -347 -94 -501 -126 -8 -2 -33 -8 -55
-13 -22 -6 -53 -14 -70 -17 -40 -8 -50 -10 -195 -43 -369 -85 -592 -137 -740
-172 -224 -53 -288 -65 -296 -58 -7 8 -83 351 -79 356 3 4 133 38 175 46 40 8
705 162 1045 243 105 25 199 47 210 49 11 2 32 6 47 10 15 3 30 5 33 5 2 0 19
5 37 10 18 5 44 11 58 14 14 3 68 15 120 28 126 30 129 30 140 1z"/>
</g>
</svg>
